<?xml version="1.0" encoding="UTF-8"?>
<svg version="1.1" xmlns="http://www.w3.org/2000/svg" width="1024" height="1024">
<path d="M0 0 C337.92 0 675.84 0 1024 0 C1024 337.92 1024 675.84 1024 1024 C686.08 1024 348.16 1024 0 1024 C0 686.08 0 348.16 0 0 Z " fill="#15232F" transform="translate(0,0)"/>
<path d="M0 0 C2.33457948 2.05234483 4.60082385 4.17048101 6.85498047 6.31054688 C9.32629323 8.5969047 11.8926886 10.65015344 14.55810547 12.70507812 C18.38097728 15.70790172 21.51338214 18.86980676 24.61279297 22.60351562 C26.32880462 24.60421124 28.14920886 26.38892143 30.05810547 28.20507812 C35.74370709 33.8360105 40.52175262 40.18871119 45.30810547 46.58007812 C45.79327637 47.2262207 46.27844727 47.87236328 46.77832031 48.53808594 C69.2392047 78.71827724 86.94717784 115.05358473 92.30810547 152.58007812 C83.06810547 152.58007812 73.82810547 152.58007812 64.30810547 152.58007812 C63.44185547 149.11507812 62.57560547 145.65007812 61.68310547 142.08007812 C55.61693124 118.66556473 45.99068922 95.62252951 32.30810547 75.58007812 C31.875625 74.93699707 31.44314453 74.29391602 30.99755859 73.63134766 C16.72167085 52.47698862 -0.3540131 32.93987355 -21.02539062 17.80664062 C-22.66836815 16.59739376 -24.28410201 15.35782415 -25.89892578 14.11132812 C-43.89585744 0.47214407 -65.00952952 -9.53577117 -86.37939453 -16.54492188 C-87.03685669 -16.76125275 -87.69431885 -16.97758362 -88.3717041 -17.20046997 C-122.15497223 -28.27630594 -157.40791074 -31.35242366 -192.69189453 -26.41992188 C-193.39362793 -26.32340332 -194.09536133 -26.22688477 -194.81835938 -26.12744141 C-252.51524138 -17.85007954 -307.31528286 13.6128064 -342.69189453 60.14257812 C-370.57717436 97.8132993 -389.03761071 144.28470454 -389.69189453 191.58007812 C-389.7109082 192.48693359 -389.72992188 193.39378906 -389.74951172 194.328125 C-391.08910224 263.5915429 -372.3713616 331.2913367 -324.97314453 383.07226562 C-323.45124548 384.74531218 -321.95102643 386.4383373 -320.47314453 388.15039062 C-315.89502136 393.42168034 -311.17268145 397.81961539 -305.56298828 401.98632812 C-304.94552734 402.51226563 -304.32806641 403.03820312 -303.69189453 403.58007812 C-303.69189453 404.24007813 -303.69189453 404.90007812 -303.69189453 405.58007812 C-302.91458984 405.91845703 -302.91458984 405.91845703 -302.12158203 406.26367188 C-298.78354888 408.07222038 -295.84204023 410.36479855 -292.81689453 412.64257812 C-242.42288234 449.8964125 -178.94250189 467.252565 -116.56689453 458.01757812 C-59.72822455 448.78667469 -2.42035228 419.77924008 32.16308594 372.55932617 C52.1478221 344.48747427 65.41569453 311.77729059 59.62060547 276.74804688 C55.93840492 258.46310509 47.1567482 242.98036205 34.30810547 229.58007812 C33.72158203 228.94199219 33.13505859 228.30390625 32.53076172 227.64648438 C15.63453518 209.79611798 -9.05610848 202.5575082 -32.69189453 199.58007812 C-33.71154297 199.44730469 -34.73119141 199.31453125 -35.78173828 199.17773438 C-67.78707043 195.66436709 -99.83873529 202.58493571 -129.32861328 214.73242188 C-131.69189453 215.58007812 -131.69189453 215.58007812 -134.69189453 215.58007812 C-134.69189453 216.24007813 -134.69189453 216.90007812 -134.69189453 217.58007812 C-132.77376953 217.88945313 -132.77376953 217.88945313 -130.81689453 218.20507812 C-106.41631944 223.16790696 -78.05664783 235.59567837 -63.81689453 256.89257812 C-53.17763596 275.15360383 -48.80110289 296.82091813 -54.17871094 317.62329102 C-61.35052048 341.72046132 -79.11912568 360.39417761 -100.69189453 372.58007812 C-129.98958935 387.78879924 -163.6396724 390.86870907 -195.18408203 381.11132812 C-226.93018858 370.63497512 -251.23750743 349.05356367 -266.69189453 319.58007812 C-267.23716797 318.55527344 -267.78244141 317.53046875 -268.34423828 316.47460938 C-275.50934233 302.08970582 -278.69189453 286.55370345 -278.69189453 270.58007812 C-269.78189453 270.58007812 -260.87189453 270.58007812 -251.69189453 270.58007812 C-251.44439453 272.95195313 -251.19689453 275.32382812 -250.94189453 277.76757812 C-248.74155411 296.01407733 -241.21048452 312.32439745 -229.69189453 326.58007812 C-228.82371094 327.71123047 -228.82371094 327.71123047 -227.93798828 328.86523438 C-213.91153105 346.04234291 -192.29866974 355.66219084 -170.69189453 358.58007812 C-145.43473386 360.77807797 -122.39822638 355.45511585 -101.69189453 340.58007812 C-101.06154297 340.1340625 -100.43119141 339.68804688 -99.78173828 339.22851562 C-89.8418168 331.48488659 -82.65091939 319.72963359 -79.69189453 307.58007812 C-79.40328798 304.82352859 -79.35736425 302.1002283 -79.37939453 299.33007812 C-79.38503418 298.5835498 -79.39067383 297.83702148 -79.39648438 297.06787109 C-79.66321792 284.83774169 -83.65956112 273.04145704 -92.62939453 264.39257812 C-119.22106648 242.77583818 -159.2150794 237.3033422 -192.03173828 232.84960938 C-216.71261897 229.46501659 -238.60746433 222.23844889 -254.55908203 201.71289062 C-268.56541561 181.13948489 -272.0853824 157.12177148 -267.99658203 132.64648438 C-267.19629787 128.844689 -266.03154927 125.22876509 -264.69189453 121.58007812 C-264.03833984 119.77603516 -264.03833984 119.77603516 -263.37158203 117.93554688 C-253.12243041 92.08864264 -231.11154019 71.90139983 -205.90283203 60.85351562 C-200.58128422 58.74302343 -195.21630016 57.07047533 -189.69189453 55.58007812 C-188.23396484 55.12955078 -188.23396484 55.12955078 -186.74658203 54.66992188 C-169.58776953 50.04693354 -148.7348756 50.83893271 -131.69189453 55.58007812 C-130.98983887 55.7734375 -130.2877832 55.96679688 -129.56445312 56.16601562 C-112.27910939 61.05830771 -97.44687311 69.09515195 -83.69189453 80.58007812 C-82.94552734 81.17433594 -82.19916016 81.76859375 -81.43017578 82.38085938 C-62.88126348 97.65000329 -49.62474449 122.78122275 -46.69189453 146.58007812 C-46.69189453 148.89007813 -46.69189453 151.20007813 -46.69189453 153.58007812 C-55.60189453 153.58007812 -64.51189453 153.58007812 -73.69189453 153.58007812 C-74.08376953 151.18757812 -74.47564453 148.79507813 -74.87939453 146.33007812 C-78.77549438 124.75117241 -91.93229698 107.22634521 -109.55126953 94.51757812 C-115.55435839 90.57525112 -121.51460253 87.62879937 -128.25439453 85.20507812 C-128.91375 84.96644043 -129.57310547 84.72780273 -130.25244141 84.48193359 C-152.64346419 76.94376794 -179.58308177 77.9860914 -200.82763672 88.38696289 C-207.73101006 91.98997794 -213.89870445 96.38106138 -219.69189453 101.58007812 C-220.31322266 102.10859375 -220.93455078 102.63710938 -221.57470703 103.18164062 C-234.21264288 114.68612931 -240.73107845 132.36516152 -241.94580078 149.07226562 C-242.42340425 163.89337975 -238.7525955 179.77018841 -228.48876953 190.98632812 C-216.94910695 201.22150711 -203.42892683 203.58053193 -188.51953125 202.83203125 C-169.93945867 201.17647652 -151.83775038 193.80429822 -134.37902832 187.58753967 C-84.4945513 169.86523236 -30.34623725 162.52151214 19.29638672 185.57617188 C49.01963604 200.03475712 71.64115937 225.50687846 82.62060547 256.70507812 C90.7772438 283.23219837 90.2170055 310.40746057 81.30810547 336.58007812 C81.0917041 337.23685547 80.87530273 337.89363281 80.65234375 338.5703125 C74.54010102 356.94818518 64.94183912 373.18087722 53.30810547 388.58007812 C52.24269531 389.99546875 52.24269531 389.99546875 51.15576172 391.43945312 C45.92388021 398.15851568 40.16397972 404.40639764 34.30810547 410.58007812 C33.83356934 411.0832959 33.3590332 411.58651367 32.87011719 412.10498047 C25.76825072 419.5870892 18.21852628 426.11717031 9.97802734 432.31591797 C8.43305776 433.48548705 6.90863612 434.68206669 5.38623047 435.88085938 C-3.17738039 442.54013136 -12.31942838 448.13936758 -21.69189453 453.58007812 C-22.37348633 453.97727051 -23.05507813 454.37446289 -23.75732422 454.78369141 C-36.47780293 462.09937173 -49.97756996 467.42944944 -63.69189453 472.58007812 C-64.49739746 472.88574707 -65.30290039 473.19141602 -66.1328125 473.50634766 C-128.47012738 496.83638712 -199.43640272 491.09654414 -259.41064453 464.01367188 C-284.15737036 452.62476349 -306.35366231 437.69594219 -326.69189453 419.58007812 C-327.22476074 419.10892578 -327.75762695 418.63777344 -328.30664062 418.15234375 C-339.8048842 407.93925814 -350.45857904 396.90260697 -359.69189453 384.58007812 C-360.11374023 384.0196582 -360.53558594 383.45923828 -360.97021484 382.88183594 C-391.16587421 342.42944097 -407.34608374 296.95529407 -415.69189453 247.58007812 C-415.91449951 246.27973633 -415.91449951 246.27973633 -416.14160156 244.953125 C-426.63604575 180.16984504 -409.76551674 107.59049788 -371.71533203 54.35742188 C-363.96854271 43.76650968 -355.75696092 33.27077566 -346.27783203 24.16992188 C-344.58533437 22.4732555 -343.09163064 20.67835579 -341.56689453 18.83007812 C-336.58356277 13.05165298 -330.58280078 8.39113664 -324.69189453 3.58007812 C-323.4021875 2.50886719 -323.4021875 2.50886719 -322.08642578 1.41601562 C-297.77738491 -18.49122503 -269.3724859 -33.40022142 -239.69189453 -43.41992188 C-238.93247559 -43.67854004 -238.17305664 -43.9371582 -237.390625 -44.20361328 C-158.24158373 -70.64771297 -64.17389498 -53.85791821 0 0 Z " fill="#1AE2FD" transform="translate(670.69189453125,283.419921875)"/>
<path d="M0 0 C0.33 0 0.66 0 1 0 C0.67 9.57 0.34 19.14 0 29 C-3 26 -3 26 -3.3984375 23.06640625 C-3.34417567 14.95426198 -2.38735697 7.75891014 0 0 Z " fill="#152E3A" transform="translate(402,415)"/>
<path d="M0 0 C1 2 1 2 0 5.3125 C-1.95422514 9.6980381 -4.99573468 11.50677819 -9 14 C-7.45158425 10.65291949 -5.50894136 7.75332488 -3.375 4.75 C-2.74335937 3.85796875 -2.11171875 2.9659375 -1.4609375 2.046875 C-0.73777344 1.03367187 -0.73777344 1.03367187 0 0 Z " fill="#131923" transform="translate(608,619)"/>
<path d="M0 0 C1.32 0.33 2.64 0.66 4 1 C4.33 3.97 4.66 6.94 5 10 C2.47671768 7.47671768 1.28600973 6.1655624 0 3 C0 2.01 0 1.02 0 0 Z " fill="#151924" transform="translate(306,607)"/>
<path d="M0 0 C-0.33 0.66 -0.66 1.32 -1 2 C1.97 2.495 1.97 2.495 5 3 C0.99799622 4.60080151 -2.04556236 3.29279692 -6 2 C-6 1.34 -6 0.68 -6 0 C-3 -1 -3 -1 0 0 Z " fill="#131019" transform="translate(542,499)"/>
<path d="M0 0 C0.66 0 1.32 0 2 0 C2.20086443 3.71599191 2.1519437 4.77208445 0 8 C-0.99 7.67 -1.98 7.34 -3 7 C-2.01 4.69 -1.02 2.38 0 0 Z " fill="#1BDBEB" transform="translate(412,391)"/>
<path d="M0 0 C4.95 0.99 4.95 0.99 10 2 C10 2.66 10 3.32 10 4 C10.66 4.33 11.32 4.66 12 5 C7.43545749 4.45660208 4.0271824 3.20536179 0 1 C0 0.67 0 0.34 0 0 Z " fill="#15141E" transform="translate(596,241)"/>
<path d="M0 0 C2.64 0.33 5.28 0.66 8 1 C8 1.66 8 2.32 8 3 C4.71023192 4.09658936 3.28696233 3.79953138 0 3 C0 2.01 0 1.02 0 0 Z " fill="#143442" transform="translate(544,769)"/>
<path d="M0 0 C0.66 0.99 1.32 1.98 2 3 C0.35 4.65 -1.3 6.3 -3 8 C-3.99 7.67 -4.98 7.34 -6 7 C-4.02 4.69 -2.04 2.38 0 0 Z " fill="#19E0EE" transform="translate(583,609)"/>
<path d="M0 0 C2.31 1.98 4.62 3.96 7 6 C6.67 6.66 6.34 7.32 6 8 C3.84526801 6.4198632 1.89353366 4.89353366 0 3 C0 2.01 0 1.02 0 0 Z " fill="#141218" transform="translate(706,514)"/>
<path d="M0 0 C1.0625 1.875 1.0625 1.875 2 4 C1.67 4.66 1.34 5.32 1 6 C0.34 6 -0.32 6 -1 6 C-1 6.66 -1 7.32 -1 8 C-1.66 7.67 -2.32 7.34 -3 7 C-2.01 4.69 -1.02 2.38 0 0 Z " fill="#151922" transform="translate(295,403)"/>
<path d="M0 0 C-0.375 2.4375 -0.375 2.4375 -1 5 C-1.99 5.495 -1.99 5.495 -3 6 C-3.66 4.35 -4.32 2.7 -5 1 C-2 0 -2 0 0 0 Z " fill="#141922" transform="translate(285,359)"/>
</svg>
